<svg width="623" height="258" viewBox="0 0 623 258" fill="none" xmlns="http://www.w3.org/2000/svg">
<path d="M326.336 79.9663C403.813 79.9663 474.074 89.392 525.064 104.704C550.539 112.354 571.374 121.524 585.907 131.842C600.363 142.106 609.161 153.944 609.161 167.001C609.161 180.057 600.363 191.894 585.907 202.158C571.374 212.476 550.539 221.646 525.064 229.296C474.074 244.608 403.813 254.034 326.336 254.034C248.86 254.034 178.599 244.608 127.61 229.296C102.134 221.646 81.2981 212.476 66.7648 202.158C52.3094 191.894 43.5111 180.057 43.5109 167.001C43.5109 153.944 52.3092 142.106 66.7648 131.842C81.2981 121.524 102.134 112.354 127.61 104.704C178.599 89.392 248.86 79.9664 326.336 79.9663ZM326.336 89.5249C269.924 89.525 218.993 98.4948 182.277 112.89C163.909 120.091 149.249 128.592 139.232 137.877C129.218 147.16 124.062 157.004 124.062 167.001C124.062 176.997 129.219 186.841 139.234 196.123C149.253 205.408 163.915 213.909 182.283 221.11C219.003 235.505 269.933 244.475 326.336 244.475C382.749 244.475 433.68 235.505 470.397 221.11C488.764 213.909 503.424 205.408 513.442 196.123C523.455 186.841 528.61 176.997 528.611 167.001C528.611 157.004 523.455 147.16 513.442 137.877C503.424 128.592 488.764 120.091 470.397 112.89C433.68 98.4947 382.749 89.5249 326.336 89.5249Z" fill="url(#paint0_linear_75_221)" stroke="#601111" stroke-width="6"/>
<path d="M147.27 45.2907L167.152 104.284L201.452 131.109L204.523 133.51L201.415 135.863L178.894 152.917L185.114 196.743L186.357 205.499L180.043 199.306L147.242 167.132L98.8911 182.716L93.9527 184.307L95.0376 179.233L106.624 125.036L64.8179 58.0515L59.6255 49.7321L68.5835 53.7224L123.58 78.2224L141.793 44.8132L145.078 38.7868L147.27 45.2907Z" fill="url(#paint1_linear_75_221)" stroke="#601111" stroke-width="6"/>
<path d="M16.1763 10.2109L110.213 47.5137L143.07 27.2715L147.192 31.4092L122.808 70.6709L121.482 72.8057L119.148 71.875L53.8736 45.8438L103.292 124.278L103.946 125.315L103.685 126.515L90.1636 188.729L141.356 172.238L142.944 171.727L144.216 172.807L177.93 201.414L174.995 206.532L134.78 192.412L69.5709 213.831L64.5845 215.469L65.7037 210.342L82.941 131.313L12.5015 14.5498L7.90485 6.93066L16.1763 10.2109Z" fill="url(#paint2_linear_75_221)" stroke="#601111" stroke-width="6"/>
<path d="M520.125 140.797L501.931 213.133C500.073 220.371 497.334 225.409 493.715 228.245C490.096 231.18 484.178 232.647 475.961 232.647H461.289L459.088 213.72H467.304C470.63 213.72 472.293 212.399 472.293 209.758C472.293 209.171 472.097 207.9 471.706 205.943L454.833 140.797H480.95L487.552 184.668H488.873L496.062 140.797H520.125Z" fill="url(#paint3_linear_75_221)"/>
<path d="M443.465 171.61V211.079H419.109V140.797H440.531L441.998 145.052H442.585C444.834 142.509 447.084 140.895 449.334 140.21C451.682 139.428 455.448 139.037 460.632 139.037L459.605 162.513H452.855C449.041 162.513 446.497 163.1 445.226 164.273C444.052 165.447 443.465 167.893 443.465 171.61Z" fill="url(#paint4_linear_75_221)"/>
<path d="M414.04 159.138L413.306 189.51C413.306 191.369 413.746 192.64 414.627 193.325C415.605 193.912 417.219 194.205 419.469 194.205L417.268 211.959C411.594 212.35 408.464 212.546 407.877 212.546C400.639 212.546 396.042 210.052 394.085 205.063H393.352C389.732 210.052 384.157 212.546 376.625 212.546C370.854 212.546 366.403 210.687 363.273 206.97C360.241 203.253 358.725 198.167 358.725 191.711C358.725 183.592 361.219 177.968 366.208 174.838C371.294 171.707 379.266 169.653 390.124 168.675V165.154C390.124 162.415 388.754 161.045 386.015 161.045C381.32 161.045 373.984 162.464 364.007 165.3L360.339 143.879C372.859 140.651 383.277 139.037 391.591 139.037C399.905 139.037 405.725 140.651 409.051 143.879C412.377 147.107 414.04 152.193 414.04 159.138ZM385.722 195.379C389.341 195.379 391.151 193.472 391.151 189.657V182.467C387.532 182.956 384.939 183.739 383.374 184.815C381.907 185.793 381.173 187.505 381.173 189.95C381.173 193.569 382.69 195.379 385.722 195.379Z" fill="url(#paint5_linear_75_221)"/>
<path d="M357.636 211.079H333.426V141.531H357.636V211.079ZM335.333 135.955C333.279 134.195 332.252 131.358 332.252 127.445C332.252 123.533 333.279 120.647 335.333 118.789C337.388 116.93 340.762 116.001 345.457 116.001C350.153 116.001 353.527 116.93 355.581 118.789C357.636 120.647 358.663 123.533 358.663 127.445C358.663 131.26 357.636 134.097 355.581 135.955C353.527 137.716 350.153 138.597 345.457 138.597C340.762 138.597 337.388 137.716 335.333 135.955Z" fill="url(#paint6_linear_75_221)"/>
<path d="M331.318 163.54C331.318 195.232 318.797 211.079 293.756 211.079H263.531V119.962H294.343C307.744 119.962 317.232 123.728 322.808 131.26C328.481 138.694 331.318 149.454 331.318 163.54ZM293.316 189.95C298.5 189.95 301.826 188.141 303.294 184.521C304.859 180.804 305.641 174.642 305.641 166.034C305.641 157.328 304.81 151.166 303.147 147.547C301.582 143.928 298.158 142.118 292.876 142.118H288.474V189.95H293.316Z" fill="url(#paint7_linear_75_221)"/>
<path d="M231.782 160.018C229.239 160.018 227.576 160.899 226.794 162.659C226.011 164.322 225.62 166.914 225.62 170.436H238.385V166.914C238.385 162.317 236.184 160.018 231.782 160.018ZM232.369 139.037C242.444 139.037 249.634 141.482 253.938 146.373C258.34 151.166 260.54 158.062 260.54 167.061C260.54 168.235 260.198 173.517 259.513 182.907H226.06C226.06 190.244 229.435 193.912 236.184 193.912C239.412 193.912 245.721 192.787 255.112 190.537L257.166 208.731C248.949 211.274 240.733 212.546 232.516 212.546C222.441 212.546 214.713 209.269 209.333 202.715C203.954 196.064 201.264 187.065 201.264 175.718C201.264 151.264 211.632 139.037 232.369 139.037Z" fill="url(#paint8_linear_75_221)"/>
<path d="M200.216 148.867C200.216 154.345 199.384 158.893 197.722 162.513C196.059 166.132 193.466 169.409 189.945 172.343L202.123 211.079H174.979L165.882 178.212H162.508V211.079H137.858V119.962H171.898C181.68 119.962 188.82 122.261 193.32 126.859C197.917 131.456 200.216 138.792 200.216 148.867ZM166.322 162.806C168.866 162.806 170.675 162.072 171.751 160.605C172.827 159.138 173.365 156.497 173.365 152.682C173.365 148.769 172.827 146.079 171.751 144.612C170.675 143.047 168.915 142.265 166.469 142.265H162.508V162.806H166.322Z" fill="url(#paint9_linear_75_221)"/>
<path d="M459.088 213.719L461.288 232.647H475.961L476.724 232.643C484.545 232.554 490.209 231.088 493.715 228.245C497.334 225.409 500.073 220.371 501.931 213.133L520.126 140.798H496.063L488.873 184.668H487.553L480.95 140.798H460.555L460.632 139.036C455.448 139.036 451.682 139.428 449.334 140.21C448.984 140.317 448.635 140.448 448.285 140.599L446.709 134.51H486.362L488.448 148.375L490.721 134.51H528.192L508.03 214.667L508.026 214.681L508.022 214.697C506.028 222.462 502.83 229.046 497.674 233.129L497.675 233.13C497.663 233.14 497.65 233.148 497.638 233.158C497.623 233.17 497.609 233.183 497.594 233.195L497.593 233.194C492.276 237.457 484.589 238.935 475.961 238.935H455.689L452.026 207.431H465.589C465.582 207.397 465.575 207.363 465.568 207.329L453.961 162.513H459.605L459.727 159.695L471.706 205.943C472.097 207.899 472.293 209.171 472.293 209.758L472.288 210.002C472.188 212.48 470.526 213.719 467.304 213.719H459.088Z" fill="#601111"/>
<path d="M443.466 171.609C443.466 167.892 444.052 165.447 445.226 164.273C446.418 163.173 448.728 162.589 452.155 162.52L452.856 162.513H459.605L460.466 162.55L462.087 168.801H452.856C451.535 168.801 450.576 168.887 449.915 168.999C449.823 169.596 449.754 170.448 449.754 171.609V217.367H412.821V212.259C414.071 212.176 415.553 212.077 417.268 211.959L419.109 197.103V211.079H443.466V171.609ZM412.821 134.51H445.014L445.214 135.09C445.953 134.737 446.715 134.434 447.503 134.194C450.858 133.111 455.427 132.748 460.632 132.748H467.201L466.849 140.798H460.555L460.632 139.036C455.448 139.036 451.682 139.428 449.334 140.21C447.084 140.895 444.834 142.509 442.584 145.052H441.998L440.53 140.798H419.109V194.198C417.046 194.168 415.552 193.88 414.627 193.324C413.747 192.64 413.306 191.368 413.306 189.51L414.04 159.138C414.04 155.706 413.633 152.727 412.821 150.203V134.51ZM460.466 162.55L459.605 162.513L459.727 159.695L460.466 162.55Z" fill="#601111"/>
<path d="M357.635 174.188C358.031 173.686 358.453 173.203 358.899 172.736L357.635 165.345V141.531H353.557L353.164 139.235L358.769 137.79C371.552 134.494 382.539 132.748 391.591 132.748C400.358 132.748 408.294 134.38 413.431 139.366C416.23 142.083 418.046 145.474 419.109 149.289V194.198C417.046 194.168 415.552 193.88 414.627 193.324C413.747 192.64 413.306 191.368 413.306 189.51L414.04 159.138C414.04 152.411 412.479 147.426 409.358 144.187L409.051 143.878C405.725 140.651 399.905 139.036 391.591 139.036C383.276 139.036 372.859 140.651 360.338 143.878L364.006 165.301C373.983 162.464 381.32 161.045 386.015 161.045C388.754 161.045 390.123 162.415 390.123 165.153V168.675C379.266 169.653 371.294 171.707 366.208 174.837L365.747 175.138C361.066 178.322 358.724 183.846 358.724 191.71C358.724 198.166 360.241 203.253 363.273 206.97C366.306 210.571 370.577 212.428 376.088 212.54L376.625 212.546C384.156 212.546 389.732 210.051 393.351 205.063H394.085C395.98 209.895 400.354 212.387 407.207 212.538L407.877 212.546C408.464 212.546 411.594 212.35 417.268 211.959L419.109 197.103V211.079H423.712L422.87 217.875L417.701 218.233C412.213 218.611 408.748 218.834 407.877 218.834C403.593 218.834 399.507 218.104 396.002 216.202C394.913 215.611 393.915 214.924 393.009 214.15C388.47 217.36 382.867 218.834 376.625 218.834C369.383 218.834 363.015 216.426 358.463 211.02L358.431 210.983L358.401 210.946C358.136 210.621 357.881 210.289 357.635 209.953V174.188ZM391.151 189.656C391.151 193.471 389.341 195.378 385.722 195.379L385.442 195.373C382.688 195.267 381.267 193.571 381.178 190.284L381.174 189.95C381.174 187.657 381.819 186.01 383.108 185.007L383.374 184.815C384.939 183.739 387.532 182.957 391.151 182.467V189.656Z" fill="#601111"/>
<path d="M358.663 127.446C358.663 123.655 357.699 120.829 355.771 118.966L355.581 118.789C353.655 117.047 350.569 116.12 346.323 116.011L345.458 116.001C340.763 116.001 337.388 116.931 335.334 118.789L335.143 118.966C333.216 120.829 332.252 123.655 332.252 127.446L332.264 128.166C332.385 131.708 333.408 134.305 335.334 135.956C337.388 137.716 340.763 138.596 345.458 138.596C350.153 138.596 353.527 137.716 355.581 135.956C357.507 134.213 358.53 131.611 358.65 128.149L358.663 127.446ZM357.635 211.079V141.531H333.426V211.079H357.635ZM364.951 127.446C364.951 130.138 364.545 132.809 363.547 135.242H363.923V142.987C362.748 143.27 361.553 143.565 360.338 143.878L363.923 164.816V176.611C360.459 179.912 358.724 184.944 358.724 191.71C358.724 198.166 360.241 203.253 363.273 206.97C363.484 207.22 363.701 207.462 363.923 207.695V217.367H327.138V189.959C329.923 182.915 331.318 174.109 331.318 163.539C331.318 153.671 329.923 145.435 327.138 138.832V135.242H327.338C326.349 132.799 325.964 130.114 325.964 127.446C325.964 122.509 327.273 117.603 331.115 114.126C334.899 110.702 340.206 109.713 345.458 109.713C350.71 109.713 356.016 110.702 359.8 114.126C363.642 117.603 364.951 122.509 364.951 127.446Z" fill="#601111"/>
<path d="M331.318 163.539C331.318 149.454 328.481 138.694 322.807 131.26C317.406 123.964 308.333 120.201 295.588 119.973L294.344 119.962V113.674C308.83 113.674 320.649 117.774 327.862 127.519H327.861C330.915 131.541 333.19 136.238 334.771 141.531H333.426V191.118C331.773 195.612 329.604 199.621 326.861 203.092C319.125 212.883 307.692 217.367 293.756 217.367H257.243V182.908H259.513C260.198 173.517 260.54 168.235 260.54 167.061C260.54 160.703 259.44 155.395 257.243 151.137V113.674H294.344V119.962H263.531V211.079H293.756C318.797 211.079 331.318 195.232 331.318 163.539ZM299.353 166.034C299.352 157.409 298.48 152.452 297.432 150.172L297.403 150.107L297.375 150.043C297.15 149.521 296.888 149.257 296.466 149.035C296.134 148.859 295.593 148.66 294.762 148.534V183.582C295.765 183.467 296.365 183.248 296.694 183.069C297.035 182.883 297.261 182.666 297.466 182.159L297.482 182.119L297.498 182.082C298.54 179.608 299.353 174.539 299.353 166.034ZM305.641 166.034C305.641 174.641 304.859 180.805 303.294 184.522L303.151 184.855C301.617 188.252 298.338 189.95 293.316 189.95H288.474V142.118H292.876C298.158 142.118 301.581 143.928 303.147 147.547C304.809 151.166 305.641 157.328 305.641 166.034Z" fill="#601111"/>
<path d="M260.54 167.061C260.54 158.062 258.34 151.166 253.938 146.373C249.769 141.635 242.891 139.192 233.305 139.044L232.369 139.036C211.632 139.036 201.264 151.264 201.264 175.718L201.271 176.775C201.434 187.625 204.122 196.271 209.333 202.715C214.545 209.064 221.96 212.338 231.578 212.536L232.516 212.546C240.219 212.546 247.922 211.429 255.625 209.193L257.166 208.731L255.112 190.538C245.722 192.787 239.412 193.912 236.184 193.912L235.562 193.901C229.227 193.679 226.06 190.015 226.06 182.908H259.513C260.112 174.691 260.449 169.619 260.524 167.694L260.54 167.061ZM232.188 160.025C236.319 160.164 238.385 162.461 238.385 166.915V170.436H225.62C225.62 166.914 226.011 164.322 226.794 162.659C227.576 160.899 229.239 160.019 231.782 160.019L232.188 160.025ZM263.531 189.196H261.289L263.531 209.058V211.079H263.759L263.999 213.198L259.025 214.739C250.234 217.459 241.392 218.834 232.516 218.834C220.951 218.834 211.276 214.993 204.473 206.705L204.458 206.688L204.444 206.669C197.901 198.58 194.976 188.032 194.976 175.718C194.976 172.465 195.147 169.342 195.507 166.367C196.37 165.128 197.11 163.844 197.722 162.513C199.248 159.191 200.071 155.087 200.197 150.199C201.339 148.009 202.682 145.983 204.244 144.14C210.954 136.228 220.735 132.748 232.369 132.748C243.214 132.748 252.543 135.351 258.568 142.119C258.59 142.143 258.612 142.168 258.634 142.192C258.642 142.201 258.65 142.209 258.658 142.218C260.683 144.445 262.293 146.953 263.531 149.701V189.196Z" fill="#601111"/>
<path d="M200.216 148.867C200.216 138.792 197.917 131.455 193.32 126.858C188.82 122.261 181.679 119.962 171.898 119.962V113.674C182.475 113.674 191.589 116.138 197.765 122.412L197.814 122.46C204.065 128.746 206.504 138.045 206.504 148.867C206.504 149.904 206.474 150.925 206.419 151.928C203.851 156.338 202.244 161.88 201.595 168.553C200.337 170.577 198.841 172.47 197.132 174.239L210.692 217.367H170.194L168.795 212.308V217.367H131.57V113.674H171.898V119.962H137.858V211.079H162.507V178.212H165.883L174.979 211.079H202.124L189.945 172.343C193.247 169.592 195.731 166.54 197.398 163.187L197.722 162.513C199.281 159.12 200.108 154.91 200.206 149.883L200.216 148.867ZM166.469 142.264C168.914 142.264 170.675 143.047 171.751 144.612C172.827 146.08 173.365 148.77 173.365 152.682L173.359 153.383C173.296 156.822 172.76 159.229 171.751 160.605C170.675 162.072 168.866 162.806 166.323 162.807H162.507V142.264H166.469Z" fill="#601111"/>
<path d="M540.075 113.063H620.299L620.467 113.069C622.177 113.196 623.059 115.238 621.911 116.574L619.726 119.114C618.412 120.642 616.495 121.522 614.479 121.522H540.093C537.605 121.522 535.24 122.61 533.617 124.494V124.495L529.045 129.804L528.333 130.631H609.49C611.308 130.631 612.286 132.763 611.101 134.141L608.917 136.681C607.603 138.209 605.686 139.09 603.67 139.09H529.284C526.95 139.09 524.726 140.046 523.12 141.718L522.807 142.061L518.234 147.371L517.523 148.197H598.679C600.497 148.197 601.476 150.329 600.292 151.708L598.107 154.248C596.793 155.776 594.876 156.656 592.86 156.656H518.474C516.141 156.656 513.917 157.613 512.31 159.285L511.998 159.629L506.426 166.101C505.09 167.655 503.143 168.549 501.094 168.549H420.146C418.385 168.549 417.411 166.547 418.429 165.169L418.535 165.038L421.346 161.771V161.77C422.266 160.702 423.601 160.09 425.009 160.09H502.6C504.724 160.09 506.748 159.222 508.211 157.699L508.496 157.386L513.366 151.727L514.238 150.714L512.915 150.906C512.581 150.955 512.246 150.981 511.908 150.981H430.959C429.141 150.981 428.162 148.849 429.347 147.47L432.159 144.204C433.079 143.135 434.414 142.522 435.823 142.522H513.411C515.676 142.522 517.827 141.534 519.305 139.818L524.175 134.16L525.048 133.146L523.725 133.339C523.391 133.387 523.056 133.415 522.717 133.415H441.769C439.951 133.415 438.972 131.283 440.157 129.904L442.968 126.637C443.888 125.567 445.224 124.956 446.632 124.956H524.217C526.483 124.956 528.634 123.968 530.112 122.252L536.681 114.618L536.682 114.619C537.534 113.63 538.773 113.063 540.075 113.063Z" fill="#601111" stroke="#601111"/>
<defs>
<linearGradient id="paint0_linear_75_221" x1="326.336" y1="82.9663" x2="326.336" y2="251.034" gradientUnits="userSpaceOnUse">
<stop stop-color="#FF5562"/>
<stop offset="1" stop-color="#FF858E"/>
</linearGradient>
<linearGradient id="paint1_linear_75_221" x1="133.483" y1="46.2487" x2="133.483" y2="197.164" gradientUnits="userSpaceOnUse">
<stop stop-color="#FF5562"/>
<stop offset="1" stop-color="#FF858E"/>
</linearGradient>
<linearGradient id="paint2_linear_75_221" x1="95.5294" y1="13" x2="95.5294" y2="210.981" gradientUnits="userSpaceOnUse">
<stop stop-color="#FF5562"/>
<stop offset="1" stop-color="#FF858E"/>
</linearGradient>
<linearGradient id="paint3_linear_75_221" x1="487.479" y1="140.797" x2="487.479" y2="232.647" gradientUnits="userSpaceOnUse">
<stop stop-color="#FC5461"/>
<stop offset="1" stop-color="#FF858E"/>
</linearGradient>
<linearGradient id="paint4_linear_75_221" x1="439.87" y1="139.037" x2="439.87" y2="211.079" gradientUnits="userSpaceOnUse">
<stop stop-color="#FC5461"/>
<stop offset="1" stop-color="#FF858E"/>
</linearGradient>
<linearGradient id="paint5_linear_75_221" x1="389.097" y1="139.037" x2="389.097" y2="212.546" gradientUnits="userSpaceOnUse">
<stop stop-color="#FC5461"/>
<stop offset="1" stop-color="#FF858E"/>
</linearGradient>
<linearGradient id="paint6_linear_75_221" x1="345.457" y1="116.001" x2="345.457" y2="211.079" gradientUnits="userSpaceOnUse">
<stop stop-color="#FC5461"/>
<stop offset="1" stop-color="#FF858E"/>
</linearGradient>
<linearGradient id="paint7_linear_75_221" x1="297.425" y1="119.962" x2="297.425" y2="211.079" gradientUnits="userSpaceOnUse">
<stop stop-color="#FC5461"/>
<stop offset="1" stop-color="#FF858E"/>
</linearGradient>
<linearGradient id="paint8_linear_75_221" x1="230.902" y1="139.037" x2="230.902" y2="212.546" gradientUnits="userSpaceOnUse">
<stop stop-color="#FC5461"/>
<stop offset="1" stop-color="#FF858E"/>
</linearGradient>
<linearGradient id="paint9_linear_75_221" x1="169.991" y1="119.962" x2="169.991" y2="211.079" gradientUnits="userSpaceOnUse">
<stop stop-color="#FC5461"/>
<stop offset="1" stop-color="#FF858E"/>
</linearGradient>
</defs>
</svg>
